# xmcd
#
# Track frame offsets:
#	150
#	22045
#	42280
#	59575
#	78400
#	107865
#	129377
#	152362
#	172280
#	190660
#
# Disc length: 2996 seconds
#
# Revision: 0
# Processed by: cddbd v1.5.2PL0 Copyright (c) Steve Scherf et al.
# Submitted via: audiograbber 1.83.01
#
DISCID=820bb20a
DTITLE=Blue Rodeo - Outskirts
DYEAR=1987
DGENRE=Country
TTITLE0=Heart Like Mine
TTITLE1=Rose Coloured Glasses
TTITLE2=Rebel
TTITLE3=Joker's Wild
TTITLE4=Piranha Pool
TTITLE5=Outskirts Of Life
TTITLE6=Underground
TTITLE7=5'll Get You Six
TTITLE8=Try
TTITLE9=Floating
EXTD=
EXTT0=
EXTT1=
EXTT2=
EXTT3=
EXTT4=
EXTT5=
EXTT6=
EXTT7=
EXTT8=
EXTT9=
PLAYORDER=
